<svg fill="#fff" id="Layer_1" enable-background="new 0 0 512.003 512.003" height="512" viewBox="0 0 512.003 512.003" width="512" xmlns="http://www.w3.org/2000/svg"><g><path d="m501.052 128.854c-7.657-8.189-18.477-12.885-29.684-12.885-3.071 0-6.106.342-9.067 1.02v-51.504c0-8.703-7.08-15.783-15.783-15.783h-55.978c-3.778 0-7.334 1.842-9.513 4.928-2.174 3.079-2.719 7.036-1.458 10.585 1.205 3.394 1.671 6.969 1.385 10.623-.983 12.555-11.2 22.659-23.767 23.503-7.196.476-14.051-1.948-19.288-6.846-5.243-4.903-8.131-11.554-8.131-18.728 0-2.94.495-5.821 1.471-8.565 1.259-3.541.715-7.491-1.455-10.567-2.181-3.09-5.74-4.935-9.522-4.935h-124.045c.918-4.004 1.218-8.127.891-12.308-1.561-19.925-17.775-35.959-37.716-37.298-11.394-.767-22.235 3.09-30.538 10.856-8.189 7.657-12.885 18.477-12.885 29.684 0 3.071.342 6.106 1.02 9.067h-51.504c-8.703 0-15.783 7.08-15.783 15.783v55.978c0 3.778 1.842 7.334 4.928 9.513 3.079 2.173 7.036 2.72 10.585 1.459 3.395-1.205 6.967-1.672 10.624-1.385 12.555.983 22.659 11.2 23.503 23.767.483 7.2-1.948 14.05-6.846 19.288-4.903 5.243-11.554 8.131-18.728 8.131-2.94 0-5.821-.495-8.565-1.471-3.54-1.26-7.491-.715-10.567 1.455-3.09 2.181-4.935 5.74-4.935 9.521v124.045c-4.004-.917-8.127-1.217-12.308-.891-19.925 1.56-35.96 17.774-37.298 37.716-.765 11.389 3.09 22.234 10.856 30.539 7.657 8.189 18.477 12.885 29.684 12.885 3.071 0 6.106-.342 9.067-1.02v51.503c0 8.703 7.08 15.783 15.783 15.783h55.979c3.778 0 7.334-1.842 9.513-4.928 2.174-3.079 2.719-7.036 1.458-10.585-1.205-3.395-1.671-6.969-1.385-10.624.983-12.555 11.2-22.659 23.767-23.503 7.196-.478 14.05 1.948 19.288 6.846 5.243 4.903 8.131 11.554 8.131 18.728 0 2.94-.495 5.821-1.471 8.565-1.259 3.541-.715 7.491 1.455 10.567 2.181 3.09 5.74 4.935 9.521 4.935h124.045c-.919 4.004-1.218 8.127-.891 12.308 1.561 19.925 17.775 35.96 37.716 37.298.949.064 1.894.096 2.833.096 10.345 0 20.093-3.833 27.705-10.951 8.189-7.657 12.885-18.477 12.885-29.684 0-3.071-.342-6.106-1.02-9.067h51.503c8.703 0 15.783-7.08 15.783-15.783v-55.978c0-3.778-1.842-7.334-4.928-9.513-3.078-2.172-7.034-2.719-10.585-1.458-3.395 1.205-6.969 1.673-10.624 1.385-12.555-.983-22.659-11.2-23.503-23.767-.483-7.2 1.948-14.05 6.846-19.288 4.903-5.243 11.554-8.131 18.728-8.131 2.94 0 5.821.495 8.565 1.471 3.541 1.26 7.491.715 10.567-1.455 3.09-2.181 4.935-5.74 4.935-9.522v-124.045c4.004.918 8.126 1.218 12.308.891 19.925-1.561 35.96-17.775 37.298-37.716.765-11.389-3.09-22.234-10.855-30.538zm-427.284 68.381c11.207 0 22.026-4.697 29.684-12.886 7.765-8.304 11.621-19.15 10.856-30.538-1.339-19.942-17.374-36.156-37.299-37.716-4.182-.326-8.302-.028-12.308.891v-51.501c0-.432.352-.783.783-.783h55.978c3.781 0 7.34-1.845 9.521-4.935 2.171-3.076 2.715-7.026 1.456-10.568-.976-2.743-1.471-5.625-1.471-8.565 0-7.174 2.887-13.825 8.13-18.727 5.238-4.898 12.09-7.327 19.288-6.846 12.566.844 22.783 10.948 23.767 23.502.286 3.657-.18 7.231-1.386 10.625-1.26 3.55-.715 7.507 1.459 10.586 2.179 3.085 5.734 4.928 9.512 4.928h56.762v56.761c0 3.778 1.842 7.334 4.928 9.513 3.079 2.174 7.035 2.72 10.587 1.459 3.394-1.205 6.97-1.67 10.622-1.385 12.556.983 22.66 11.201 23.503 23.767.483 7.2-1.948 14.05-6.846 19.288-4.903 5.243-11.554 8.13-18.728 8.13-2.939 0-5.822-.495-8.565-1.471-3.541-1.258-7.491-.715-10.566 1.455-3.09 2.181-4.935 5.74-4.935 9.521v56.761h-52.287c.678-2.961 1.02-5.996 1.02-9.067 0-11.207-4.697-22.026-12.885-29.684-8.304-7.765-19.146-11.624-30.538-10.855-19.942 1.339-36.156 17.374-37.716 37.298-.327 4.181-.028 8.303.891 12.308h-52.283v-52.287c2.961.679 5.995 1.021 9.066 1.021zm174.734 250.066h-52.287c.678-2.961 1.02-5.996 1.02-9.066 0-11.207-4.697-22.026-12.886-29.684-8.304-7.765-19.146-11.616-30.538-10.856-19.942 1.339-36.156 17.374-37.716 37.299-.327 4.18-.028 8.303.891 12.308h-51.501c-.432 0-.783-.352-.783-.783v-55.977c0-3.781-1.845-7.34-4.935-9.521-3.076-2.171-7.026-2.714-10.568-1.456-2.743.976-5.625 1.471-8.564 1.471-7.174 0-13.825-2.887-18.728-8.13-4.898-5.238-7.329-12.088-6.846-19.288.844-12.566 10.948-22.783 23.503-23.767 3.654-.285 7.23.18 10.624 1.386 3.551 1.262 7.507.715 10.586-1.459 3.085-2.179 4.928-5.734 4.928-9.512v-56.762h56.762c3.777 0 7.333-1.842 9.512-4.928 2.174-3.079 2.72-7.036 1.459-10.587-1.205-3.393-1.671-6.968-1.385-10.622.983-12.555 11.2-22.659 23.767-23.503 7.196-.479 14.05 1.948 19.288 6.846 5.243 4.903 8.13 11.554 8.13 18.728 0 2.94-.495 5.821-1.471 8.565-1.259 3.541-.715 7.492 1.456 10.567 2.181 3.09 5.74 4.935 9.521 4.935h56.761v52.287c-2.961-.678-5.996-1.02-9.067-1.02-11.207 0-22.026 4.697-29.684 12.885-7.765 8.305-11.621 19.15-10.855 30.538 1.339 19.942 17.374 36.156 37.298 37.716 4.179.327 8.302.028 12.308-.891zm198.799-131.513c-2.961-.678-5.996-1.02-9.066-1.02-11.207 0-22.026 4.697-29.684 12.886-7.765 8.304-11.621 19.15-10.856 30.538 1.339 19.942 17.375 36.156 37.299 37.716 4.182.327 8.303.028 12.308-.891v51.501c0 .432-.352.783-.783.783h-55.978c-3.781 0-7.34 1.845-9.521 4.935-2.171 3.076-2.715 7.026-1.456 10.568.976 2.743 1.471 5.625 1.471 8.564 0 7.174-2.887 13.825-8.13 18.728-5.238 4.898-12.087 7.326-19.289 6.846-12.566-.844-22.783-10.948-23.767-23.502-.286-3.657.18-7.231 1.386-10.625 1.26-3.55.715-7.507-1.46-10.586-2.179-3.085-5.734-4.928-9.512-4.928h-56.762v-56.761c0-3.778-1.842-7.334-4.928-9.513-3.079-2.174-7.035-2.72-10.587-1.459-3.393 1.205-6.969 1.671-10.622 1.385-12.555-.983-22.659-11.2-23.503-23.767-.483-7.2 1.948-14.05 6.846-19.289 4.903-5.243 11.554-8.13 18.727-8.13 2.94 0 5.821.495 8.565 1.471 3.541 1.26 7.491.715 10.567-1.456 3.09-2.181 4.935-5.74 4.935-9.521v-56.761h52.287c-.678 2.961-1.02 5.996-1.02 9.067 0 11.207 4.697 22.026 12.885 29.684 7.613 7.119 17.36 10.951 27.705 10.951.939 0 1.885-.032 2.833-.096 19.942-1.339 36.156-17.374 37.716-37.298.327-4.181.028-8.303-.891-12.308h52.285zm49.64-157.401c-.844 12.566-10.948 22.783-23.502 23.767-3.658.286-7.231-.18-10.624-1.386-3.55-1.26-7.506-.714-10.586 1.46-3.085 2.179-4.928 5.734-4.928 9.512v56.762h-56.761c-3.778 0-7.334 1.842-9.513 4.928-2.174 3.079-2.72 7.036-1.459 10.587 1.205 3.393 1.671 6.968 1.385 10.622-.983 12.555-11.2 22.659-23.767 23.503-7.196.478-14.051-1.948-19.289-6.846-5.243-4.903-8.13-11.554-8.13-18.727 0-2.94.495-5.821 1.471-8.565 1.259-3.541.715-7.492-1.456-10.567-2.181-3.09-5.74-4.935-9.521-4.935h-56.761v-52.287c2.961.678 5.996 1.02 9.067 1.02 11.207 0 22.026-4.697 29.684-12.885 7.765-8.304 11.621-19.149 10.856-30.538-1.339-19.942-17.374-36.157-37.299-37.716-4.18-.327-8.303-.028-12.308.891v-52.285h52.287c-.678 2.961-1.02 5.996-1.02 9.066 0 11.207 4.697 22.026 12.886 29.684 8.304 7.765 19.148 11.618 30.538 10.856 19.942-1.339 36.156-17.374 37.716-37.299.327-4.18.028-8.303-.891-12.308h51.501c.432 0 .783.352.783.783v55.978c0 3.781 1.845 7.34 4.935 9.521 3.076 2.171 7.026 2.713 10.568 1.456 2.743-.976 5.625-1.471 8.565-1.471 7.174 0 13.825 2.887 18.727 8.13 4.899 5.239 7.33 12.089 6.846 19.289z"/></g></svg>