<?xml version="1.0"?>
<svg fill="#fff" xmlns="http://www.w3.org/2000/svg" viewBox="0 0 512 512" width="512" height="512"><g id="outline"><path d="M461.328,98.491A104.014,104.014,0,0,0,300.507,225.5l-16.785-6.1c3.232-26.3-3.323-53.669-18.759-77.8-16.754-26.187-42.927-46.77-73.7-57.954-70.482-25.618-146.208,4.13-168.813,66.315C1.164,208.523,33.922,275.109,97.3,304.27A96.717,96.717,0,0,0,96,320a96.044,96.044,0,0,0,138.937,85.89L224.41,437.47a8,8,0,0,0,12.028,9.186l18.542-12.362,11.363,11.363a8,8,0,0,0,11.314,0l11.363-11.363,18.542,12.362a8,8,0,0,0,12.028-9.186L296,366.7V352a23.962,23.962,0,0,0-8.927-18.658A96.839,96.839,0,0,0,288,320a95.365,95.365,0,0,0-16.673-54.041L345.1,292.775a7.993,7.993,0,0,0,4.94,9.748l112.78,41a8,8,0,0,0,10.252-4.786l16.217-44.614a8,8,0,0,0-4.785-10.252l-43.87-15.947A103.982,103.982,0,0,0,461.328,98.491ZM400,168V88.364a87.732,87.732,0,0,1,44,16.659A104.2,104.2,0,0,0,416.312,168Zm15.777,107.908L434.6,316.236l-23.846-8.668L391.93,267.24Zm-44.05-33.036a8,8,0,0,0-10.252,4.785v0l-16.741-6.085A102.771,102.771,0,0,0,367.7,184H384v63.333Zm-44.916-7.812A87.456,87.456,0,0,1,304.368,184h47.259a87.019,87.019,0,0,1-23,51.718ZM367.688,168A104.233,104.233,0,0,0,340,105.022a87.722,87.722,0,0,1,44-16.658V168ZM456,115.617A88.118,88.118,0,0,1,479.627,168H432.373A88.178,88.178,0,0,1,456,115.617Zm-127.989,0A88.2,88.2,0,0,1,351.626,168H304.373A88.118,88.118,0,0,1,328.006,115.617ZM37.488,155.423c19.59-53.893,86.119-79.349,148.31-56.744,27.488,9.991,50.816,28.3,65.686,51.54,14.558,22.756,20.05,48.669,15.464,72.968a8,8,0,0,0,5.129,9l47.115,17.12c.095.038.19.075.286.11l36.53,13.277-5.464,15.033-83.932-30.507a7.992,7.992,0,0,0-9.075,2.655,96.631,96.631,0,0,0-22.092-15.5c.931-1.99,1.794-4.011,2.542-6.073,9.422-25.9,3.7-55.27-15.309-78.564A99.471,99.471,0,0,0,194.3,125.98a106.379,106.379,0,0,0-15.784-7.249,101.6,101.6,0,0,0-53.6-4.619l-.174.031c-29.533,5.661-52.779,24.5-62.182,50.393-9.422,25.911-3.7,55.281,15.306,78.558a100.336,100.336,0,0,0,32.707,26.078,95.406,95.406,0,0,0-8.876,18.209c-.131.362-.251.728-.378,1.092C47.239,262.187,19.362,205.293,37.488,155.423ZM272,320c0,2.684-.134,5.36-.4,8.01A24.024,24.024,0,0,0,248,352v14.7l-3.088,9.264L223.782,351,235.6,314.62l34.064-13.8A80.034,80.034,0,0,1,272,320Zm8,40H264v-8a8,8,0,0,1,16,0ZM154.768,299.938l-35.061-14.207a79.989,79.989,0,0,1,29.611-33.394q2.521-1.606,5.063-2.951a78.732,78.732,0,0,1,29.693-8.992l.337,38.007Zm-34.416-43.8c-.19-.089-.376-.184-.566-.273a7.993,7.993,0,0,0,1.1-2.025l2.731-7.515,4.819,1.752A95.951,95.951,0,0,0,120.352,256.136Zm-46.074-61.8,15.162,5.511-5.467,15.042-5.479-1.994A64.777,64.777,0,0,1,74.278,194.335Zm30.2,10.977,15.039,5.466-5.468,15.042L99.01,220.354Zm117.569-25.361a64.778,64.778,0,0,1,4.215,18.556L211.1,193l5.465-15.037Zm-25.981,7.58-15.037-5.466,5.466-15.037,15.036,5.466Zm-20.5,9.572,15.038,5.466-5.465,15.037L170.1,212.139Zm-20.5,9.571-15.041-5.467,5.466-15.038,15.041,5.468ZM165.992,176.6l-15.041-5.467,5.466-15.037,15.041,5.467Zm-30.078-10.933L120.871,160.2l5.465-15.037,15.044,5.468ZM130.448,180.7l-5.466,15.037-15.04-5.467,5.464-15.038Zm4.1,35.54,15.041,5.467-5.468,15.042-15.041-5.467Zm30.077,10.933,1.192.432c-.5.142-1.006.281-1.506.432Zm40.63-2.256-5.088-1.85,5.465-15.036,19.519,7.095a57.377,57.377,0,0,1-4.543,13.222A95.518,95.518,0,0,0,205.26,224.921ZM207,157.457l-15.038-5.466,2.517-6.923a82.673,82.673,0,0,1,12.876,11.415Zm-30.074-10.932-15.041-5.467,2.733-7.519a8.016,8.016,0,0,0,.465-2.252q4.011,1.052,7.964,2.481c2.514.914,4.982,1.95,7.4,3.078Zm-30.078-10.933L131.8,130.123l.352-.971a82.83,82.83,0,0,1,17.214-.5Zm-41.014,2.116,5.466,1.986-5.465,15.038L90.68,149.224A64.83,64.83,0,0,1,105.832,137.708ZM77.59,170a57.467,57.467,0,0,1,3.259-7.327l19.52,7.1L94.9,184.808l-19.52-7.095A57.453,57.453,0,0,1,77.59,170Zm15.946,65.387,15.046,5.469-2.524,6.944a83.041,83.041,0,0,1-12.874-11.444ZM175.662,344l-10.375-31.928,27.16-19.733,27.16,19.733L209.232,344Zm54.145-44.294-29.395-21.357-.337-37.943c.739.074,1.477.154,2.207.249a79.464,79.464,0,0,1,19.111,4.916A80.347,80.347,0,0,1,264.3,285.728ZM112,320a80.179,80.179,0,0,1,2.186-18.647c.042-.18.092-.36.136-.54l35.106,14.224,11.436,35.2-23.7,28.008A79.4,79.4,0,0,1,112,320Zm37.864,68,23.7-28h36.881l23.7,28a79.979,79.979,0,0,1-84.273,0Zm142.574,29.344a8,8,0,0,0-10.095,1L272,428.687l-10.343-10.344a8,8,0,0,0-10.095-1l-4.6,3.066,14.8-44.41h20.468l14.8,44.41Zm80.209-153.587,16.843,36.081-26.462-9.619Zm88.124,61.991-4.9-1.782-18.826-40.328,34.479,12.533ZM400,253.149V184h16.312A104.1,104.1,0,0,0,444,246.98a88.4,88.4,0,0,1-25.4,12.931Zm56-16.766A88.085,88.085,0,0,1,432.372,184h47.254A88.178,88.178,0,0,1,456,236.383Z"/></g></svg>
