<svg fill="#1eaaf1" height="480pt" viewBox="-56 0 480 480" width="480pt" xmlns="http://www.w3.org/2000/svg"><path d="m48 472c0 4.417969 3.582031 8 8 8h272c4.417969 0 8-3.582031 8-8v-92.6875l29.65625-29.65625-11.3125-11.3125-19.199219 19.199219c-2.945312-18.164063-13.601562-34.171875-29.222656-43.894531 22.574219-6.910157 43.101563-19.273438 59.765625-36 3.125-3.125 3.125-8.1875 0-11.3125-19.0625-18.9375-29.753906-44.71875-29.6875-71.59375v-50.742188c0-79.527344-64.472656-144-144-144s-144 64.472656-144 144v50.742188c.078125 26.871093-10.601562 52.65625-29.65625 71.601562-3.121094 3.125-3.121094 8.1875 0 11.3125 16.664062 16.726562 37.191406 29.089844 59.769531 36-12.300781 7.667969-21.632812 19.292969-26.457031 32.960938l-13.601562-15.847657-12.144532 10.398438 22.089844 25.832031v.703125 1.320313l-36.753906-16.335938c-2.472656-1.097656-5.335938-.871094-7.605469.605469-2.269531 1.476562-3.640625 4-3.640625 6.707031v64c0 3.164062 1.863281 6.027344 4.753906 7.3125l43.246094 19.222656zm48-8h-32v-32h32zm224 0h-32v-32h32zm0-48h-20.6875l20.6875-20.6875zm0-48.296875v4.984375l-45.648438 45.648438c-1.507812 1.496093-2.355468 3.539062-2.351562 5.664062v40h-160v-13.464844l43.246094-19.199218c2.898437-1.289063 4.765625-4.164063 4.753906-7.335938v-1.375c6.304688 4.664062 12.996094 8.78125 20 12.3125l8.449219 4.222656c2.25 1.125 4.898437 1.125 7.152343 0l8.445313-4.222656c43.902344-21.773438 72.777344-65.390625 75.679687-114.304688 23.167969 3.667969 40.234376 23.617188 40.273438 47.070313zm-92.121094 15.152344c2.171875 1.304687 4.835938 1.503906 7.179688.535156 2.339844-.96875 4.085937-2.988281 4.703125-5.445313l14.476562-57.945312h9.480469c-2.675781 43.089844-28.171875 81.46875-66.855469 100.640625l-4.863281 2.398437-4.863281-2.398437c-9.851563-4.957031-18.984375-11.230469-27.136719-18.65625v-21.457031l32-19.199219zm-59.878906-73.632813.152344-13.222656h47.695312l.152344 13.222656-24 29.976563zm58.832031 54.402344-22.832031-13.777344 23.839844-29.847656h9.914062zm-3.054687-83.625h-63.554688c-35.449218-.042969-64.179687-28.773438-64.222656-64.222656v-79.449219c16.515625 1.335937 32.410156 6.871094 46.183594 16.078125l18.753906 12.496094c18.664062 12.472656 40.613281 19.121094 63.0625 19.097656h2.726562c20.605469 0 40.820313-5.601562 58.488282-16.199219l2.785156-1.671875v49.648438c-.042969 35.449218-28.773438 64.179687-64.222656 64.222656zm-43.777344 69.847656-20 12v-1.847656c.027344-3.519531-2.285156-6.632812-5.664062-7.625l-8.097657-32.375h9.921875zm-144.726562-78.207031c18.597656-21.292969 28.808593-48.625 28.726562-76.898437v-50.742188c0-70.691406 57.308594-128 128-128s128 57.308594 128 128v50.742188c-.082031 28.273437 10.128906 55.605468 28.726562 76.898437-23.472656 20.925781-53.847656 32.449219-85.292968 32.359375h-31.503906l-.082032-8.40625c40.945313-4.195312 72.101563-38.65625 72.152344-79.816406v-63.777344c0-2.882812-1.550781-5.542969-4.0625-6.960938-2.507812-1.421874-5.585938-1.378906-8.058594.105469l-14.894531 8.933594c-15.179687 9.109375-32.550781 13.921875-50.257813 13.921875h-2.726562c-19.289062.019531-38.148438-5.691406-54.183594-16.40625l-18.753906-12.496094c-18.664062-12.472656-40.613281-19.121094-63.0625-19.097656-4.417969 0-8 3.582031-8 8v87.777344c.050781 41.160156 31.207031 75.621094 72.152344 79.816406l-.082032 8.40625h-31.503906c-31.445312.089844-61.820312-11.433594-85.292968-32.359375zm86.65625 59.152344-.226563.261719c-.582031-3.671876-.976563-7.351563-1.222656-11.0625h9.28125l9.246093 37.023437-8.527343 3.785156c-1.527344-3.480469-2.921875-7-4.113281-10.617187l7.703124-8.984375zm-6.257813 36.597656-6.535156 2.90625 5.230469-6.105469c.441406 1.066406.832031 2.144532 1.304687 3.199219zm-11.382813-46.75c.566407 8.730469 1.964844 17.386719 4.175782 25.855469l-28.464844 33.207031-15.558594-18.101563c2.738282-20.976562 18.957032-37.644531 39.847656-40.960937zm-88.289062 98.160156v-46.488281l60.65625 26.953125.085938.039063c2.070312.917968 4.429687.917968 6.496093 0l.089844-.039063 60.671875-26.953125v46.488281l-32 14.222657v-9.023438c0-4.417969-3.582031-8-8-8h-48c-4.417969 0-8 3.582031-8 8v9.023438zm0 0"/><path d="m184 384h16v16h-16zm0 0"/></svg>