<svg fill="#1eaaf1" height="512" viewBox="0 0 64 64" width="512" xmlns="http://www.w3.org/2000/svg"><g id="Bookshelves-book-books-education-book_store" data-name="Bookshelves-book-books-education-book store"><path d="m61 54h-1v-49a1 1 0 0 0 -1-1h-11v-1a1 1 0 0 0 -1-1h-12a1 1 0 0 0 -1 1v5h-9a1 1 0 0 0 -1 1v.29l-8.5-2.28a.988.988 0 0 0 -.75.1 1.026 1.026 0 0 0 -.47.61l-11.9 44.43a1 1 0 0 0 .7 1.23l2.33.62h-2.41a1 1 0 0 0 -1 1v4a1 1 0 0 0 1 1h58a1 1 0 0 0 1-1v-4a1 1 0 0 0 -1-1zm-13-48h10v5h-10zm0 7h10v34h-10zm0 36h10v5h-10zm-12-45h10v4h-10zm0 6h10v38h-10zm0 40h10v4h-10zm-10-40h8v6h-8zm0 8h8v24h-8zm0 26h8v2h-8zm0 4h8v6h-8zm-21.43 3.7 11.38-42.5 7.73 2.07-11.39 42.51zm19.43-33.89v36.19h-9.7zm36 40.19h-56v-2h56z"/><path d="m39 44h4a1 1 0 0 0 1-1v-28a1 1 0 0 0 -1-1h-4a1 1 0 0 0 -1 1v28a1 1 0 0 0 1 1zm1-28h2v26h-2z"/><path d="m7.982 45.945h4v2h-4z" transform="matrix(.259 -.966 .966 .259 -37.946 44.437)"/><path d="m2.382 29.524h24v2h-24z" transform="matrix(.259 -.966 .966 .259 -18.824 36.515)"/><path d="m17.153 13.586h3v2h-3z" transform="matrix(.259 -.966 .966 .259 -.264 28.828)"/></g></svg>